<?xml version="1.0" encoding="UTF-8"?>
<svg id="Layer_2" data-name="Layer 2" xmlns="http://www.w3.org/2000/svg" viewBox="0 0 1852.23 170.96">
  <defs>
    <style>
      .cls-1 {
        fill: #fff;
      }
    </style>
  </defs>
  <g id="Layer_2-2" data-name="Layer 2">
    <g>
      <polygon class="cls-1" points="1600.73 2.27 1563.23 105.29 1528.59 2.27 1517.52 2.27 1473.12 2.27 1462.04 2.27 1401.46 168.7 1456.94 168.7 1494.44 65.67 1529.08 168.7 1540.16 168.7 1584.55 168.7 1595.63 168.7 1656.21 2.27 1600.73 2.27"/>
      <path class="cls-1" d="M1143.5,2.27h-142.05l-60.58,166.43h153.6c30.18,0,54.45-19.23,63.09-42.95l2.5-6.86c8.09-22.23-2.15-40.52-22.99-42.73,18.89-2.64,38.27-18.08,45.06-36.74h0c7.47-20.51-3.65-35.95-38.63-37.14ZM1106.44,118.29l-.71,1.96c-2.46,6.76-9.88,12.25-24.43,12.25h-71.45l9.63-26.45h73.62c11.44,0,15.8,5.48,13.34,12.25ZM1120.92,54.23h0c-2.25,6.19-9.1,11.21-15.29,11.21h-71.37l8.16-22.42h71.37c6.19,0,9.38,5.02,7.13,11.21Z"/>
      <polygon class="cls-1" points="143.41 2.27 99.44 123.06 55.48 2.27 0 2.27 60.58 168.7 82.84 168.7 116.05 168.7 138.31 168.7 198.89 2.27 143.41 2.27"/>
      <polygon class="cls-1" points="254.68 2.27 194.11 168.7 249.59 168.7 310.16 2.27 254.68 2.27"/>
      <polygon class="cls-1" points="421.61 2.27 366.13 2.27 305.55 168.7 345.98 168.7 361.03 168.7 475.8 168.7 492.69 122.27 377.93 122.27 421.61 2.27"/>
      <polygon class="cls-1" points="624.25 2.27 568.77 2.27 508.2 168.7 548.63 168.7 563.68 168.7 678.44 168.7 695.34 122.27 580.57 122.27 624.25 2.27"/>
      <path class="cls-1" d="M1343.15,0h-28.49c-47.21,0-99.41,38.27-116.59,85.48h0c-17.18,47.21,7.16,85.48,54.37,85.48h28.49c47.21,0,99.41-38.27,116.59-85.48h0c17.18-47.21-7.16-85.48-54.37-85.48ZM1340.53,85.48h0c-7.36,20.23-29.74,36.63-49.97,36.63h-12.21c-20.23,0-30.66-16.4-23.3-36.63h0c7.36-20.23,29.74-36.63,49.97-36.63h12.21c20.23,0,30.66,16.4,23.3,36.63Z"/>
      <path class="cls-1" d="M827.04,2.27h-55.48l-60.58,166.43h55.48l8.45-23.21h80.27l8.45,23.21h55.48L858.54,2.27h-31.49ZM791.81,99.06l23.24-63.85,23.24,63.85h-46.48Z"/>
      <path class="cls-1" d="M1796.75,168.7h55.48L1791.65,2.27h-86.97l-60.58,166.43h55.48l8.45-23.21h80.27l8.45,23.21ZM1724.93,99.06l23.24-63.85,23.24,63.85h-46.48Z"/>
    </g>
  </g>
</svg>
